<?xml version="1.0" encoding="UTF-8"?>
<svg width="32px" height="40px" viewBox="0 0 32 40" version="1.1" xmlns="http://www.w3.org/2000/svg" xmlns:xlink="http://www.w3.org/1999/xlink">
    <!-- Generator: Sketch 44.1 (41455) - http://www.bohemiancoding.com/sketch -->
    <title>ico_base_station</title>
    <desc>Created with Sketch.</desc>
    <defs>
        <path d="M11.8548123,0.355555556 C5.48297648,0.355555556 0.298511111,5.57842437 0.298511111,11.9981062 C0.298511111,13.6726089 0.63872358,15.2713802 1.30918951,16.7504055 C4.19858606,23.1199235 9.73836304,29.8447959 11.3677848,31.753936 C11.4898629,31.8966604 11.66784,31.9788644 11.8551335,31.9788644 C12.0424271,31.9788644 12.2204042,31.8966604 12.3424823,31.753936 C13.9712615,29.8451196 19.5110385,23.1205708 22.4013988,16.7504055 C23.072186,15.2713802 23.4120772,13.6726089 23.4120772,11.9981062 C23.4114347,5.57842437 18.2269693,0.355555556 11.8548123,0.355555556 Z" id="path-1"></path>
        <filter x="-30.3%" y="-15.8%" width="160.6%" height="144.3%" filterUnits="objectBoundingBox" id="filter-2">
            <feOffset dx="0" dy="2" in="SourceAlpha" result="shadowOffsetOuter1"></feOffset>
            <feGaussianBlur stdDeviation="2" in="shadowOffsetOuter1" result="shadowBlurOuter1"></feGaussianBlur>
            <feColorMatrix values="0 0 0 0 0   0 0 0 0 0   0 0 0 0 0  0 0 0 0.5 0" type="matrix" in="shadowBlurOuter1"></feColorMatrix>
        </filter>
    </defs>
    <g id="Web" stroke="none" stroke-width="1" fill="none" fill-rule="evenodd">
        <g id="ico_base_station" transform="translate(4.000000, 2.000000)">
            <g id="Cat-Staff">
                <g id="Path">
                    <use fill="black" fill-opacity="1" filter="url(#filter-2)" xlink:href="#path-1"></use>
                    <use fill="#FFFFFF" fill-rule="evenodd" xlink:href="#path-1"></use>
                </g>
                <g id="Cat-Mosque" transform="translate(2.117647, 2.133333)">
                    <ellipse id="Oval-Copy-3" fill="#FFC600" cx="9.739055" cy="9.8354042" rx="9.739055" ry="9.8354042"></ellipse>
                    <g id="wifi-signal-tower" transform="translate(2.000000, 4.000000)" fill="#FFFFFF">
                        <path d="M12.912216,10.7535342 L12.1836047,10.012966 C14.5649746,7.59381494 14.564411,3.65918903 12.1824777,1.24061026 L12.912216,0.500614431 C15.695928,3.32667737 15.695928,7.92747121 12.912216,10.7535342 Z M10.9224817,8.73271029 L11.651093,9.47442304 C13.7394405,7.35287275 13.7394405,3.90127583 11.651093,1.78087016 L10.9224817,2.52086599 C12.608487,4.23264287 12.608487,7.02093341 10.9224817,8.73271029 Z M10.3510882,8.15238874 C11.722658,6.7599604 11.722658,4.49304357 10.3505247,3.10118754 L9.62191338,3.84118336 C10.5922681,4.82669985 10.5922681,6.42859336 9.62191338,7.4118206 L10.3510882,8.15238874 Z M3.10563801,1.24061026 L2.37589973,0.500614431 C-0.407248823,3.32667737 -0.407248823,7.92747121 2.37589973,10.7535342 L3.10451101,10.012966 C0.723141135,7.59495956 0.723704639,3.65976134 3.10563801,1.24061026 Z M3.63589572,9.47442304 L4.36507049,8.73271029 C2.67906513,7.02093341 2.67906513,4.2343598 4.36507049,2.52086599 L3.63589572,1.78029785 C1.54698466,3.90070352 1.54698466,7.35287275 3.63589572,9.47442304 Z M4.93646402,8.15238874 L5.6656388,7.4118206 C4.69641112,6.42687643 4.69641112,4.82498292 5.66620231,3.84118336 L4.93702753,3.10118754 C3.56545766,4.4947605 3.56545766,6.76053271 4.93646402,8.15238874 Z" id="Shape" fill-rule="nonzero"></path>
                        <circle id="Oval-3" cx="7.63235294" cy="5.61666667" r="1.25"></circle>
                    </g>
                </g>
            </g>
        </g>
    </g>
</svg>