<?xml version="1.0" encoding="UTF-8"?>
<svg width="32px" height="40px" viewBox="0 0 32 40" version="1.1" xmlns="http://www.w3.org/2000/svg" xmlns:xlink="http://www.w3.org/1999/xlink">
    <!-- Generator: Sketch 44.1 (41455) - http://www.bohemiancoding.com/sketch -->
    <title>ico_school_04</title>
    <desc>Created with Sketch.</desc>
    <defs>
        <path d="M11.8548123,0.355555556 C5.48297648,0.355555556 0.298511111,5.57842437 0.298511111,11.9981062 C0.298511111,13.6726089 0.63872358,15.2713802 1.30918951,16.7504055 C4.19858606,23.1199235 9.73836304,29.8447959 11.3677848,31.753936 C11.4898629,31.8966604 11.66784,31.9788644 11.8551335,31.9788644 C12.0424271,31.9788644 12.2204042,31.8966604 12.3424823,31.753936 C13.9712615,29.8451196 19.5110385,23.1205708 22.4013988,16.7504055 C23.072186,15.2713802 23.4120772,13.6726089 23.4120772,11.9981062 C23.4114347,5.57842437 18.2269693,0.355555556 11.8548123,0.355555556 Z" id="path-1"></path>
        <filter x="-30.3%" y="-15.8%" width="160.6%" height="144.3%" filterUnits="objectBoundingBox" id="filter-2">
            <feOffset dx="0" dy="2" in="SourceAlpha" result="shadowOffsetOuter1"></feOffset>
            <feGaussianBlur stdDeviation="2" in="shadowOffsetOuter1" result="shadowBlurOuter1"></feGaussianBlur>
            <feColorMatrix values="0 0 0 0 0   0 0 0 0 0   0 0 0 0 0  0 0 0 0.5 0" type="matrix" in="shadowBlurOuter1"></feColorMatrix>
        </filter>
    </defs>
    <g id="Web" stroke="none" stroke-width="1" fill="none" fill-rule="evenodd">
        <g id="ico_school_04" transform="translate(4.000000, 2.000000)">
            <g id="Cat-Staff-Copy-213">
                <g id="Path">
                    <use fill="black" fill-opacity="1" filter="url(#filter-2)" xlink:href="#path-1"></use>
                    <use fill="#FFFFFF" fill-rule="evenodd" xlink:href="#path-1"></use>
                </g>
                <g id="Cat-Mosque-Copy-4" transform="translate(2.117647, 2.133333)">
                    <ellipse id="Oval-Copy-3" fill="#00B88C" cx="9.739055" cy="9.8354042" rx="9.739055" ry="9.8354042"></ellipse>
                    <g id="open-book" transform="translate(4.000000, 5.000000)" fill-rule="nonzero" fill="#FFFFFF">
                        <path d="M1.74874284,0.00188608027 C1.74843491,0.00188608027 1.74808848,0.00188608027 1.74778055,0.00188608027 C1.63965811,0.00188608027 1.53796374,0.0440342007 1.46117333,0.120632155 C1.38353611,0.19807692 1.34077213,0.301195472 1.34077213,0.410973043 L1.34077213,6.54516045 C1.34077213,6.77010439 1.52449174,6.95355456 1.75035948,6.95413194 C2.70256058,6.95640293 4.29787656,7.15486477 5.39842364,8.30656697 L5.39842364,1.88696558 C5.39842364,1.81071405 5.37894698,1.73908149 5.34218766,1.67980468 C4.43890917,0.225136398 2.70309946,0.00411858346 1.74874284,0.00188608027 Z" id="Shape"></path>
                        <path d="M10.0911838,6.54516045 L10.0911838,0.410934551 C10.0911838,0.301156981 10.0484198,0.198038429 9.97078261,0.120593663 C9.8939922,0.0439957093 9.79222085,0.00184758884 9.68421389,0.00184758884 C9.68386746,0.00184758884 9.68352104,0.00184758884 9.68321311,0.00184758884 C8.72889498,0.00411858346 6.99308527,0.225136398 6.08976829,1.67980468 C6.05300897,1.73908149 6.0335708,1.81071405 6.0335708,1.88696558 L6.0335708,8.30652848 C7.13411788,7.15482627 8.72943386,6.95636444 9.68163496,6.95409344 C9.90746421,6.95351607 10.0911838,6.7700659 10.0911838,6.54516045 Z" id="Shape"></path>
                        <path d="M11.0229075,1.41652327 L10.7262925,1.41652327 L10.7262925,6.54516045 C10.7262925,7.11949114 10.2583521,7.58781642 9.68313613,7.5892406 C8.87547036,7.59116517 7.54374372,7.74909553 6.60058811,8.64175038 C8.23177811,8.24236326 9.95134444,8.50198798 10.9313364,8.72531528 C11.0537006,8.75318308 11.180145,8.72439149 11.2781827,8.64625387 C11.3758739,8.56830872 11.4319175,8.45179515 11.4319175,8.32673648 L11.4319175,1.82553325 C11.4319559,1.60001194 11.2484288,1.41652327 11.0229075,1.41652327 Z" id="Shape"></path>
                        <path d="M0.705624971,6.54516045 L0.705624971,1.41652327 L0.409009979,1.41652327 C0.183527158,1.41652327 0,1.60001194 0,1.82553325 L0,8.326621 C0,8.45171817 0.0560435281,8.56819325 0.153734788,8.6461384 C0.251695488,8.72423752 0.378024375,8.75314459 0.500581101,8.72519981 C1.48057302,8.50183401 3.20017784,8.24224778 4.83129085,8.6416349 C3.88817373,7.74901854 2.55644709,7.59112668 1.74878133,7.58920211 C1.17360383,7.58781642 0.705624971,7.11949114 0.705624971,6.54516045 Z" id="Shape"></path>
                    </g>
                </g>
            </g>
        </g>
    </g>
</svg>