<?xml version="1.0" encoding="UTF-8"?>
<svg width="32px" height="40px" viewBox="0 0 32 40" version="1.1" xmlns="http://www.w3.org/2000/svg" xmlns:xlink="http://www.w3.org/1999/xlink">
    <!-- Generator: Sketch 44.1 (41455) - http://www.bohemiancoding.com/sketch -->
    <title>ico_yes_store</title>
    <desc>Created with Sketch.</desc>
    <defs>
        <path d="M11.8548123,0.355555556 C5.48297648,0.355555556 0.298511111,5.57842437 0.298511111,11.9981062 C0.298511111,13.6726089 0.63872358,15.2713802 1.30918951,16.7504055 C4.19858606,23.1199235 9.73836304,29.8447959 11.3677848,31.753936 C11.4898629,31.8966604 11.66784,31.9788644 11.8551335,31.9788644 C12.0424271,31.9788644 12.2204042,31.8966604 12.3424823,31.753936 C13.9712615,29.8451196 19.5110385,23.1205708 22.4013988,16.7504055 C23.072186,15.2713802 23.4120772,13.6726089 23.4120772,11.9981062 C23.4114347,5.57842437 18.2269693,0.355555556 11.8548123,0.355555556 Z" id="path-1"></path>
        <filter x="-30.3%" y="-15.8%" width="160.6%" height="144.3%" filterUnits="objectBoundingBox" id="filter-2">
            <feOffset dx="0" dy="2" in="SourceAlpha" result="shadowOffsetOuter1"></feOffset>
            <feGaussianBlur stdDeviation="2" in="shadowOffsetOuter1" result="shadowBlurOuter1"></feGaussianBlur>
            <feColorMatrix values="0 0 0 0 0   0 0 0 0 0   0 0 0 0 0  0 0 0 0.5 0" type="matrix" in="shadowBlurOuter1"></feColorMatrix>
        </filter>
    </defs>
    <g id="Web" stroke="none" stroke-width="1" fill="none" fill-rule="evenodd">
        <g id="ico_yes_store" transform="translate(4.000000, 2.000000)">
            <g id="Cat-Staff-Copy-211">
                <g id="Path">
                    <use fill="black" fill-opacity="1" filter="url(#filter-2)" xlink:href="#path-1"></use>
                    <use fill="#FFFFFF" fill-rule="evenodd" xlink:href="#path-1"></use>
                </g>
                <g id="Cat-Mosque-Copy-3" transform="translate(2.117647, 2.133333)">
                    <ellipse id="Oval-Copy-3" fill="#0FAEF2" cx="9.739055" cy="9.8354042" rx="9.739055" ry="9.8354042"></ellipse>
                    <path d="M15.8881083,11.5494447 C15.8857194,11.5523699 15.8831843,11.5553925 15.8808442,11.5582689 C15.8566142,11.5872766 15.8315555,11.615358 15.8053754,11.6425618 C15.8029866,11.6449995 15.8006465,11.6474371 15.7982576,11.6499235 C15.7849969,11.6635254 15.7713462,11.6769811 15.7575493,11.690193 C15.7571593,11.6904367 15.756818,11.6908267 15.7564768,11.6910705 C15.7429723,11.7039899 15.7289804,11.7166168 15.7147934,11.7290974 C15.7127946,11.7309987 15.7106007,11.7329001 15.7084069,11.7348014 C15.6939274,11.7475258 15.6790092,11.7601039 15.6638959,11.7723896 C15.6631646,11.7728771 15.6626283,11.7734621 15.6618971,11.7739984 C15.6471738,11.785894 15.6320606,11.7976433 15.6168498,11.8091001 C15.6151435,11.8103677 15.6135346,11.8115377 15.6120721,11.8127078 C15.5960813,11.8247009 15.5797492,11.8363527 15.5633684,11.8478096 C15.5626371,11.8482483 15.5619058,11.8488334 15.5611745,11.8492721 C15.5445987,11.8606314 15.5280716,11.871747 15.5113496,11.8824725 C15.5106183,11.8829113 15.509887,11.8833501 15.5092045,11.8837401 C15.4918973,11.8949044 15.474249,11.9057274 15.4564543,11.916258 C15.455723,11.916648 15.455138,11.9169405 15.4546017,11.9172818 C15.4182324,11.9386353 15.3811806,11.9587213 15.3431537,11.9777348 C15.3429587,11.9778323 15.3427637,11.9779298 15.3426174,11.9779298 C15.0579033,12.1197506 14.7246317,12.1949268 14.3751255,12.1949268 C13.4705243,12.1949268 12.45506,11.8354752 12.45506,11.1998898 C12.45506,10.7948547 12.7229058,10.5093117 13.0459882,10.5093117 C13.4982157,10.5093117 13.81184,10.9237073 14.4302158,10.9237073 C14.7256555,10.9237073 14.836421,10.785543 14.836421,10.6379694 C14.836421,10.4353055 14.6878723,10.3590567 14.333686,10.223135 C14.208051,10.1762351 14.1123987,10.1463987 13.7195029,9.98419934 C13.4657953,9.87967414 13.2524059,9.77856161 13.0814799,9.65926442 C12.7552287,9.43173685 12.5843027,9.1381985 12.5843027,8.63034448 C12.5843027,8.61391492 12.5848877,8.5975341 12.585424,8.58105578 C12.585619,8.57671682 12.585619,8.57228035 12.586009,8.56789263 C12.5864966,8.55390068 12.5872766,8.53990874 12.5883004,8.52586804 C12.5884954,8.52323541 12.5886904,8.52060277 12.5888854,8.51797014 C12.5902017,8.50168683 12.5916156,8.48550103 12.5934194,8.46931522 C12.5940044,8.46526877 12.594492,8.46117357 12.594882,8.45707836 C12.5964908,8.44376895 12.5983434,8.4306058 12.6003422,8.41734514 C12.6008785,8.41368871 12.6014148,8.41003227 12.6019998,8.40632709 C12.6044862,8.39023879 12.6072651,8.37415049 12.6101902,8.35806219 C12.6108728,8.35479578 12.6116041,8.35152936 12.6121891,8.34826295 C12.6148705,8.33485603 12.6176006,8.32154662 12.620672,8.3081397 C12.6215983,8.30414201 12.6225246,8.3000468 12.6234509,8.29600035 C12.6270586,8.27991205 12.6310563,8.2638725 12.635444,8.24797921 C12.6357853,8.24627288 12.6363703,8.24451779 12.6369066,8.24286021 C12.6407093,8.22842949 12.6450482,8.21395002 12.6494359,8.19971431 C12.6507035,8.1955216 12.6517761,8.1914264 12.6532386,8.18733119 C12.6579676,8.1722667 12.6628916,8.15715344 12.6679619,8.1421377 C12.6683519,8.14130891 12.6685469,8.14052887 12.6688882,8.13979758 C12.6743484,8.12395304 12.68015,8.10835227 12.6861465,8.09260523 C12.6877553,8.08880254 12.6892667,8.08490235 12.6907292,8.0809534 C12.6961408,8.06769274 12.7016498,8.05443208 12.7072563,8.04117142 C12.7083289,8.03868505 12.7094502,8.03614992 12.7105227,8.0336148 C12.7170555,8.01820903 12.7241734,8.00285202 12.7312425,7.98759251 C12.7329001,7.9843261 12.7345089,7.98105968 12.7361665,7.97779327 C12.7423581,7.96506889 12.7485496,7.95239326 12.7550337,7.93986388 C12.75674,7.93659747 12.7583489,7.93342856 12.7600064,7.93016215 C12.7680018,7.9151464 12.7759972,7.90022816 12.7843339,7.88540742 C12.7857965,7.88301856 12.787259,7.88077594 12.7885266,7.87848458 C12.7957907,7.86566269 12.8032986,7.85293831 12.811099,7.84031143 C12.8130978,7.83685001 12.8152917,7.83338859 12.8174368,7.82997592 C12.8265047,7.81520393 12.8358165,7.80067571 12.8454694,7.78624499 C12.8456157,7.78585497 12.8460057,7.7855137 12.846152,7.78522119 C12.8554637,7.77122924 12.8650679,7.75738355 12.8748671,7.74368412 C12.877256,7.7402227 12.8797911,7.73676128 12.882375,7.73339736 C12.891638,7.72047797 12.9012422,7.70765608 12.9108952,7.6949317 C12.9118215,7.69376164 12.9127478,7.69259158 12.9136253,7.69151903 C12.9243509,7.67767334 12.9352714,7.66402266 12.9465332,7.65056699 C12.9490683,7.64739808 12.9516522,7.64432668 12.9543336,7.64120653 C12.9638403,7.62984721 12.9736396,7.6185854 12.9834388,7.60742109 C12.9856327,7.60503223 12.9876315,7.60264336 12.9896304,7.60030324 C13.0014284,7.58723759 13.0134215,7.5743182 13.0256096,7.56159381 C13.0281935,7.55900994 13.0305336,7.55657231 13.0330688,7.55403719 C13.043258,7.54340916 13.0537886,7.53282988 13.0643678,7.52239686 C13.067488,7.51956922 13.0703644,7.51669283 13.0730945,7.51396269 C13.0859652,7.50157958 13.0988845,7.48929397 13.112194,7.47730087 C13.1139978,7.47574079 13.1158504,7.47422947 13.1174592,7.47266939 C13.1292573,7.46213887 13.1410554,7.45165709 13.1532435,7.44146784 C13.1567537,7.43859144 13.1601663,7.4356663 13.1636278,7.43278991 C13.1912704,7.40958375 13.2199856,7.38710888 13.2494808,7.36546281 C13.2532835,7.36268392 13.2570862,7.36000254 13.2608889,7.35722365 C13.2738082,7.34791193 13.2869226,7.33874648 13.3001833,7.32977603 C13.3023772,7.32831346 13.304571,7.32675338 13.3067649,7.32524206 C13.3219756,7.3150528 13.3374789,7.30491229 13.3530797,7.29511306 C13.3569311,7.29272419 13.3607338,7.29048158 13.3645365,7.28809271 C13.3774559,7.28004856 13.3905703,7.27219942 13.404026,7.26449653 C13.4074386,7.26240018 13.4109001,7.26020632 13.4145565,7.25820747 C13.4307423,7.24894451 13.4471231,7.23987656 13.4636502,7.23100362 C13.4669166,7.22929728 13.470378,7.22759095 13.4738394,7.22573836 C13.4876364,7.21847424 13.5016771,7.21130764 13.5158153,7.20438479 C13.520203,7.20219093 13.5245907,7.20014333 13.5288809,7.19794947 C13.546188,7.18966156 13.5634464,7.18156866 13.5809485,7.17376827 C13.5814848,7.17357326 13.5818261,7.17337825 13.5823623,7.17318324 C13.5821673,7.17318324 13.5821673,7.17318324 13.5821673,7.17328075 C13.8289521,7.06363654 14.1165914,7.00001463 14.4396737,7.00001463 C15.0213389,7.00001463 16.1010102,7.27648963 16.1010102,8.02230423 C16.1010102,8.38170711 15.8426223,8.63034448 15.5010141,8.63034448 C15.2149836,8.63034448 14.7902037,8.27103911 14.3473367,8.27103911 C14.153887,8.27103911 13.9691153,8.36332745 13.9691153,8.57505923 C13.9691153,8.70737332 14.093824,8.80136799 14.2847385,8.88829357 C14.4224154,8.9462602 14.6080646,9.00973586 14.8102409,9.08861728 C15.4362221,9.31809495 16.1877407,9.64702756 16.2197711,10.5246687 C16.2204536,10.5438772 16.2209899,10.5632319 16.2209899,10.5828791 L16.2209899,10.5830254 C16.2209899,10.6046227 16.2204536,10.6258788 16.2197711,10.6470373 C16.219576,10.6521563 16.219381,10.6572266 16.218991,10.6623456 C16.2181135,10.6831141 16.2169922,10.7038826 16.2151883,10.7244074 C16.2151883,10.72626 16.2148471,10.7279663 16.2148471,10.7297702 C16.2131895,10.7488811 16.2111906,10.7677971 16.2088018,10.786518 C16.2082655,10.7913445 16.207778,10.7961222 16.2069979,10.8009487 C16.2044628,10.8208885 16.2015864,10.8405844 16.1982712,10.8601342 C16.1978812,10.8629618 16.1973937,10.8657894 16.1968087,10.8686171 C16.193786,10.8860705 16.1904709,10.9033288 16.1868144,10.9204409 C16.1858881,10.9248774 16.1850106,10.9293139 16.1840843,10.9337016 C16.1798916,10.952715 16.1755526,10.971436 16.1708236,10.9900594 C16.1698973,10.9935208 16.1690198,10.9968847 16.1680935,11.0003461 C16.1637058,11.0165319 16.1592205,11.0326202 16.1542966,11.048611 C16.1531752,11.0525112 16.1519077,11.0565089 16.1508351,11.0605066 C16.1451798,11.0784963 16.1391833,11.0964859 16.1329917,11.1141831 C16.1317242,11.1177907 16.1303104,11.1214472 16.128994,11.1250548 C16.1233875,11.1406069 16.1175372,11.1558664 16.1115407,11.1710771 C16.1103219,11.1744411 16.1088105,11.177805 16.107348,11.1810714 C16.1004251,11.1983297 16.0930148,11.2153443 16.0853606,11.2322614 C16.0837518,11.2359666 16.081948,11.239623 16.0802416,11.2432307 C16.0731725,11.258344 16.0661034,11.2731647 16.0584493,11.2878879 C16.0571817,11.2904718 16.0560604,11.2929094 16.0548416,11.2954446 C16.0462612,11.3118741 16.0375345,11.3281575 16.0284665,11.344197 C16.0264677,11.3478047 16.0242738,11.3513636 16.022275,11.3548738 C16.0135483,11.369792 16.0048704,11.3845153 15.9957537,11.3990922 C15.9947786,11.4005548 15.9940961,11.4020661 15.9929748,11.4035287 C15.9831755,11.4192757 15.9729863,11.4347303 15.9624558,11.4499898 C15.9602619,11.4532562 15.9579218,11.4566201 15.9555817,11.4598865 C15.9450024,11.4751948 15.9342769,11.4901618 15.9232101,11.5049825 C15.923015,11.5049825 15.923015,11.50508 15.923015,11.50508 C15.9115095,11.5201933 15.8999064,11.5349165 15.8881083,11.5494447 Z M11.6195409,10.4172038 C11.942672,10.4172038 12.2197808,10.6658899 12.2197808,11.034312 C12.2197808,11.7342018 11.0471875,12.1949122 9.9582533,12.1949122 C8.40768241,12.1949122 7.43833793,11.0433312 7.43833793,9.59728546 C7.43833793,8.2160805 8.48144483,7 9.9582533,7 C11.3795328,7 12.2936407,8.18843787 12.2936407,9.44093644 C12.2936407,9.94747414 12.0536325,10.0672101 11.5921421,10.0672101 L8.98910383,10.0672101 C8.98910383,10.3711327 9.21989781,10.8686025 10.1427812,10.8686025 C10.8535428,10.8686025 11.2871957,10.4172038 11.6195409,10.4172038 Z M7.6150996,7.72785421 C7.6150996,7.93958599 7.5136458,8.18802835 7.43978588,8.35407912 L5.30735479,13.3182948 C5.14154779,13.6958824 5.02137306,14 4.52297702,14 C4.00605505,14 3.81221541,13.5946723 3.81221541,13.3552492 C3.81221541,13.1065143 3.88622159,12.9404635 4.0522236,12.5632173 L4.53209372,11.4855449 L3.3045564,8.5658109 C3.13855439,8.1788629 3,7.83842471 3,7.67256896 C3,7.24876413 3.34146199,7.00002925 3.70149865,7.00002925 C4.0522236,7.00002925 4.30129974,7.18441092 4.43985413,7.54366755 L5.28897513,9.73557659 L6.09192757,7.78304196 C6.27650426,7.34090621 6.47975312,7.00002925 6.87669537,7.00002925 C7.31975741,7.00002925 7.6150996,7.28566971 7.6150996,7.72785421 Z M8.95512339,8.94800066 L8.95585468,8.94999951 C8.95585468,9.01981299 9.01294377,9.07699958 9.08314726,9.07699958 L10.6922698,9.07699958 C10.7626196,9.07699958 10.8195624,9.01981299 10.8195624,8.94999951 L10.8195624,8.94800066 C10.8195624,8.62560087 10.4506528,8.0823526 9.88731852,8.0823526 C9.32422801,8.0823526 8.95512339,8.62560087 8.95512339,8.94800066 Z" id="Combined-Shape" fill="#FFFFFF"></path>
                </g>
            </g>
        </g>
    </g>
</svg>